<svg xmlns="http://www.w3.org/2000/svg" viewBox="0 0 512 512" fill="none">
  <!-- Camera body -->
  <rect x="72" y="136" width="368" height="240" rx="24" fill="#333333" />
  
  <!-- Lens body -->
  <circle cx="256" cy="256" r="88" fill="#111111" />
  
  <!-- Lens glass -->
  <circle cx="256" cy="256" r="72" fill="#222222" />
  <circle cx="256" cy="256" r="56" fill="#444444" />
  <circle cx="256" cy="256" r="40" fill="#555555" />
  
  <!-- Lens reflection -->
  <circle cx="276" cy="236" r="12" fill="#FFFFFF" opacity="0.6" />
  <circle cx="236" cy="276" r="6" fill="#FFFFFF" opacity="0.4" />
  
  <!-- Camera top -->
  <rect x="172" y="100" width="168" height="36" rx="12" fill="#333333" />
  
  <!-- Flash -->
  <rect x="360" y="156" width="48" height="24" rx="8" fill="#DDDDDD" />
  
  <!-- Camera details -->
  <rect x="92" y="176" width="40" height="16" rx="4" fill="#444444" />
  <circle cx="400" cy="176" r="16" fill="#FF6B6B" />
  
  <!-- Camera grip texture -->
  <rect x="92" y="216" width="40" height="8" rx="2" fill="#444444" />
  <rect x="92" y="236" width="40" height="8" rx="2" fill="#444444" />
  <rect x="92" y="256" width="40" height="8" rx="2" fill="#444444" />
  <rect x="92" y="276" width="40" height="8" rx="2" fill="#444444" />
  
  <!-- Camera control dial -->
  <circle cx="390" cy="216" r="24" fill="#222222" stroke="#444444" stroke-width="4" />
  <path d="M390 204 L390 228" stroke="#444444" stroke-width="4" />
  <path d="M378 216 L402 216" stroke="#444444" stroke-width="4" />
  
  <!-- Lens details -->
  <circle cx="256" cy="256" r="88" stroke="#555555" stroke-width="6" stroke-dasharray="6,8" fill="none" />
  <circle cx="256" cy="256" r="96" stroke="#4ECDC4" stroke-width="3" stroke-dasharray="3,6" fill="none" />
</svg> 